<?xml version="1.0" encoding="utf-8"?>
<!-- Svg Vector Icons : http://www.onlinewebfonts.com/icon -->
<!DOCTYPE svg PUBLIC "-//W3C//DTD SVG 1.1//EN" "http://www.w3.org/Graphics/SVG/1.1/DTD/svg11.dtd">
<svg version="1.1" xmlns="http://www.w3.org/2000/svg" xmlns:xlink="http://www.w3.org/1999/xlink" x="0px" y="0px" viewBox="0 0 1000 1000" enable-background="new 0 0 1000 1000" xml:space="preserve">
<metadata> Svg Vector Icons : http://www.onlinewebfonts.com/icon </metadata>
<g><path d="M500,10c-184.8,0-334.6,59.8-334.6,133.6v717C165.3,932.1,315.2,990,500,990c184.8,0,334.7-57.9,334.7-129.4v-717C834.7,69.8,684.8,10,500,10z M500,45.1c155.7,0,281.9,44.1,281.9,98.5c0,54.4-126.2,98.5-281.9,98.5c-155.6,0-281.9-44.1-281.9-98.5C218.1,89.2,344.3,45.1,500,45.1z M800.9,833C801,917.1,659.8,962.5,500,962.5c-159.8,0-305.5-49.1-300.9-129.4V202.1c54.3,44.5,168.7,75.1,300.9,75.1c132.2,0,246.6-30.6,300.9-75.1L800.9,833z"/><path d="M400.7,458.7h-48.5v273.1h33.7V551.9c0-31.6-0.4-49.9-1.1-54.9h0.7c1.8,8.9,6.7,22.2,15,39.7l90.2,195.1h18l56.4-122.6c25.3-54.6,39.1-84.5,41.3-89.8c2.2-5.3,4.6-12.6,7-22.1h0.7c-0.9,16-1.4,33.6-1.4,52.8v181.7h35.1V458.7h-46.4l-76.1,163.5c-10.7,23.1-19,42.2-25,57.5h-1.1C496.6,668.1,463.7,594.4,400.7,458.7z"/></g>
</svg>