<svg xmlns="http://www.w3.org/2000/svg" data-name="Layer 1" viewBox="0 0 512 512"><path d="M182,424a7.5,7.5,0,1,0,7.5,7.5A7.50006,7.50006,0,0,0,182,424Zm-30,0a7.5,7.5,0,1,0,7.5,7.5A7.50006,7.50006,0,0,0,152,424Zm0-160.5a7.5,7.5,0,1,0,7.5,7.5A7.50006,7.50006,0,0,0,152,263.5ZM470,424a7.5,7.5,0,1,0,7.5,7.5A7.50006,7.50006,0,0,0,470,424ZM122,439a7.5,7.5,0,1,0-7.5-7.5A7.50006,7.50006,0,0,0,122,439Zm0-30H470a7.5,7.5,0,0,0,0-15H122a7.5,7.5,0,0,0,0,15ZM67,449a32.5,32.5,0,1,0-32.5-32.5A32.53637,32.53637,0,0,0,67,449Zm0-50a17.5,17.5,0,1,1-17.5,17.5A17.52,17.52,0,0,1,67,399ZM470,263.5a7.5,7.5,0,1,0,7.5,7.5A7.50006,7.50006,0,0,0,470,263.5ZM152,103a7.5,7.5,0,1,0,7.5,7.5A7.50006,7.50006,0,0,0,152,103Zm30,0a7.5,7.5,0,1,0,7.5,7.5A7.50006,7.50006,0,0,0,182,103Zm0,160.5a7.5,7.5,0,1,0,7.5,7.5A7.50006,7.50006,0,0,0,182,263.5ZM122,103a7.5,7.5,0,1,0,7.5,7.5A7.50006,7.50006,0,0,0,122,103Zm355.5,7.5A7.5,7.5,0,1,0,470,118,7.50006,7.50006,0,0,0,477.5,110.5Zm-3,50.5A37.54227,37.54227,0,0,0,512,123.5v-56A37.54227,37.54227,0,0,0,474.5,30H37.5A37.54227,37.54227,0,0,0,0,67.5v56A37.54227,37.54227,0,0,0,37.5,161H50v29.5H37.5A37.54227,37.54227,0,0,0,0,228v56a37.54227,37.54227,0,0,0,37.5,37.5H50V351H37.5A37.54227,37.54227,0,0,0,0,388.5v56A37.54227,37.54227,0,0,0,37.5,482h437A37.54227,37.54227,0,0,0,512,444.5v-56A37.54227,37.54227,0,0,0,474.5,351H462V321.5h12.5A37.54227,37.54227,0,0,0,512,284V228a37.54227,37.54227,0,0,0-37.5-37.5H462V161Zm0,205A22.52586,22.52586,0,0,1,497,388.5v56A22.52586,22.52586,0,0,1,474.5,467H37.5A22.52586,22.52586,0,0,1,15,444.5v-56A22.52586,22.52586,0,0,1,37.5,366ZM65,351V321.5h52V351Zm67,0V321.5H380V351Zm263,0V321.5h52V351Zm79.5-145.5A22.52586,22.52586,0,0,1,497,228v56a22.52586,22.52586,0,0,1-22.5,22.5H37.5A22.52586,22.52586,0,0,1,15,284V228a22.52586,22.52586,0,0,1,22.5-22.5ZM65,190.5V161h52v29.5Zm67,0V161H380v29.5Zm263,0V161h52v29.5ZM37.5,146A22.52586,22.52586,0,0,1,15,123.5v-56A22.52586,22.52586,0,0,1,37.5,45h437A22.52586,22.52586,0,0,1,497,67.5v56A22.52586,22.52586,0,0,1,474.5,146ZM122,278.5a7.5,7.5,0,1,0-7.5-7.5A7.50006,7.50006,0,0,0,122,278.5Zm0-30H470a7.5,7.5,0,0,0,0-15H122a7.5,7.5,0,0,0,0,15ZM122,88H470a7.5,7.5,0,0,0,0-15H122a7.5,7.5,0,0,0,0,15ZM67,63A32.5,32.5,0,1,0,99.5,95.5,32.53637,32.53637,0,0,0,67,63Zm0,50A17.5,17.5,0,1,1,84.5,95.5,17.52,17.52,0,0,1,67,113Zm0,175.5A32.5,32.5,0,1,0,34.5,256,32.53637,32.53637,0,0,0,67,288.5Zm0-50A17.5,17.5,0,1,1,49.5,256,17.52,17.52,0,0,1,67,238.5Z"/></svg>