<svg xmlns="http://www.w3.org/2000/svg" width="48" height="48" viewBox="0 0 48 48"><path d="M 24 0 C 10.75108 0 -1.1e-005 10.7511 0 24 C 0 37.2489 10.751088 48 24 48 C 37.248912 48 48 37.2489 48 24 C 48.000011 10.7511 37.24892 0 24 0 z M 24 1 C 36.708479 1 47.000011 11.2915 47 24 C 47 36.7085 36.708472 47 24 47 C 11.291528 47 1 36.7085 1 24 C 0.999989 11.2915 11.291521 1 24 1 z M 20.013672 9.9980469 C 14.493325 9.9978469 10.007665 14.4824 10.007812 20 C 10.007991 25.5176 14.493283 29.9998 20.013672 30 C 21.707147 30.000061 23.302119 29.576103 24.701172 28.832031 L 26.701172 30.833984 A 0.50005018 0.50005018 0 0 0 27.408203 30.833984 L 27.572266 30.669922 L 29 32.099609 L 32.414062 35.517578 L 34.251953 37.357422 C 35.106588 38.213122 36.50478 38.214822 37.359375 37.357422 C 38.213683 36.502022 38.214015 35.101694 37.359375 34.246094 L 30.681641 27.5625 L 30.847656 27.396484 A 0.50005018 0.50005018 0 0 0 30.847656 26.689453 L 28.847656 24.689453 C 29.593489 23.290299 30.019594 21.69417 30.019531 20 C 30.019295 14.4824 25.53402 9.9982469 20.013672 9.9980469 z M 20.013672 10.998047 C 24.993899 10.998247 29.019319 15.0231 29.019531 20 C 29.019717 24.9769 24.993936 29.0002 20.013672 29 C 15.033409 28.9999 11.007974 24.9769 11.007812 20 C 11.00768 15.0231 15.033446 10.997947 20.013672 10.998047 z M 20.015625 11.998047 C 15.603438 11.995647 12.019084 15.578181 12.021484 19.988281 C 12.023852 24.398381 15.613203 27.988281 20.025391 27.988281 C 24.437578 27.990681 28.023884 24.408147 28.021484 19.998047 C 28.019115 15.587947 24.427812 11.998047 20.015625 11.998047 z M 20.017578 12.998047 C 23.88964 13.000147 27.019384 16.126794 27.021484 19.996094 C 27.023601 23.865394 23.897453 26.988281 20.025391 26.988281 C 16.15333 26.986181 13.023584 23.857581 13.021484 19.988281 C 13.019367 16.118981 16.145517 12.998047 20.017578 12.998047 z M 28.320312 25.574219 L 29.787109 27.042969 L 27.056641 29.773438 L 25.585938 28.302734 C 26.663759 27.578218 27.594875 26.651064 28.320312 25.574219 z M 29.974609 28.269531 L 36.652344 34.953125 C 37.127921 35.429225 37.127285 36.174791 36.652344 36.650391 C 36.17727 37.125891 35.43449 37.124491 34.958984 36.650391 L 33.121094 34.810547 L 29.707031 31.392578 L 28.279297 29.962891 L 29.974609 28.269531 z " color="#000" font-family="sans-serif" font-weight="400" overflow="visible" white-space="normal" style="line-height:normal;text-indent:0;text-align:start;text-decoration-line:none;text-decoration-style:solid;text-decoration-color:#000;text-transform:none;block-progression:tb;isolation:auto;mix-blend-mode:normal"/></svg>