<svg xmlns="http://www.w3.org/2000/svg" data-name="Layer 1" viewBox="0 0 64 64"><path d="M51.511,8.237H26.923l-2.1-1.54a1,1,0,0,0-.593-.2H12.489a1,1,0,0,0-1,1V22.141a1,1,0,0,0,.725.962l.576.164v25.27c0,.022.011.041.012.063a1.028,1.028,0,0,0,.051.257c.011.032.02.063.034.094a.978.978,0,0,0,.2.293l7.96,7.961a1,1,0,0,0,.326.217,1.015,1.015,0,0,0,.381.076H50.21a1,1,0,0,0,1-1V23.267l.576-.164a1,1,0,0,0,.725-.962V9.237A1,1,0,0,0,51.511,8.237ZM13.489,8.5H23.906l2.1,1.54a1,1,0,0,0,.593.2H50.511v11.15L32,26.676,13.489,21.387ZM16.2,49.537H20.75v4.546ZM49.21,55.5H22.75V48.537a1,1,0,0,0-1-1H14.79v-23.7l16.935,4.839a1.008,1.008,0,0,0,.55,0L49.21,23.839Z"/><path d="M43.6 35.5L32 38.816 20.4 35.5a1 1 0 1 0-.549 1.923l11.872 3.391a1.007 1.007 0 0 0 .548 0l11.872-3.391A1 1 0 1 0 43.6 35.5zM20.4 29.434a1 1 0 0 0-.549 1.923l11.871 3.391a.989.989 0 0 0 .55 0l11.871-3.391a1 1 0 0 0-.549-1.923L32 32.747zM43.6 41.575L32 44.887 20.4 41.575a1 1 0 1 0-.549 1.923l11.872 3.39a.982.982 0 0 0 .548 0L44.146 43.5a1 1 0 0 0-.549-1.923zM24.69 18.584l-1.13 2.31H21.81l2.01-3.81-1.89-3.63h1.75l1.01 2.09 1.01-2.09h1.75l-1.89 3.63 2.01 3.81H25.82zM34.18 15.824l-1.45 5.07H31.52l-1.43-5.06v5.06H28.67v-7.44H30.8l1.32 4.78 1.33-4.78H35.6v7.44H34.18zM37.2 13.454h1.59v6.08h3.14v1.36H37.2z"/></svg>