<?xml version="1.0" encoding="utf-8"?>
<!-- Svg Vector Icons : http://www.onlinewebfonts.com/icon -->
<!DOCTYPE svg PUBLIC "-//W3C//DTD SVG 1.1//EN" "http://www.w3.org/Graphics/SVG/1.1/DTD/svg11.dtd">
<svg version="1.1" xmlns="http://www.w3.org/2000/svg" xmlns:xlink="http://www.w3.org/1999/xlink" x="0px" y="0px" viewBox="0 0 1000 1000" enable-background="new 0 0 1000 1000" xml:space="preserve">
<metadata> Svg Vector Icons : http://www.onlinewebfonts.com/icon </metadata>
<g><path d="M346,679.4h-47.9V323.5H346V679.4z"/><path d="M701.9,363H531.2v116.6h129v39.5h-129v160.3h-47.9V323.5h218.6V363z"/><path d="M698.8,830.6H375.5c-182.1,0-329.7-142.9-329.7-319.2v-22.9c0-176.3,147.6-319.2,329.7-319.2h323.4v-31.5H359.6C166.5,137.9,10,294.4,10,487.5v25c0,193.1,156.5,349.6,349.6,349.6h339.2V830.6z"/><path d="M640.4,137.9h-13.2v31.6c180.8,1.4,327,143.7,327,319.1v22.9c0,175.4-146.2,317.8-327,319.1v31.6h13.2c193.1,0,349.6-156.5,349.6-349.6v-25C990,294.4,833.5,137.9,640.4,137.9z"/></g>
</svg>