<?xml version="1.0" encoding="utf-8"?>
<!-- Svg Vector Icons : http://www.onlinewebfonts.com/icon -->
<!DOCTYPE svg PUBLIC "-//W3C//DTD SVG 1.1//EN" "http://www.w3.org/Graphics/SVG/1.1/DTD/svg11.dtd">
<svg version="1.1" xmlns="http://www.w3.org/2000/svg" xmlns:xlink="http://www.w3.org/1999/xlink" x="0px" y="0px" viewBox="0 0 1000 1000" enable-background="new 0 0 1000 1000" xml:space="preserve">
<metadata> Svg Vector Icons : http://www.onlinewebfonts.com/icon </metadata>
<g><path d="M972.6,150.8c-23.2-23.2-60.9-23.2-84.1,0l-1.7,1.7l84.1,84.1l1.7-1.7C995.8,211.6,995.8,174,972.6,150.8z M573.8,633.6l-84.1-84.1l387-387l84.1,84.1L573.8,633.6z M478.1,561.2l0.7,0.7l-32.7,122l115.4-39.3l0.6,0.6c0.5-0.5,1.1-1,1.6-1.5l-84.1-84.1C479.1,560.1,478.6,560.6,478.1,561.2z M797.6,447.9V797c0,18.1-15.5,32.8-34.6,32.8H82.6c-19.1,0-34.6-14.7-34.6-32.8V403.3c0-18.1,15.5-32.8,34.6-32.8h535.3v-36.9H48.1c-21,0-38.1,17-38.1,38.1v456.8c0,21,17,38.1,38.1,38.1h749.5c21,0,38.1-17,38.1-38.1V447.9H797.6z M83.8,480h456.4l36.9-36.9H83.8V480z M83.8,559.6h385l36.9-36.9H83.8V559.6z M83.8,596.5h377.9l-10.7,36.9H83.8V596.5z M83.8,727.1H735v36.9H83.8V727.1z"/></g>
</svg>