<?xml version="1.0" encoding="UTF-8"?><!DOCTYPE svg PUBLIC "-//W3C//DTD SVG 1.1//EN" "http://www.w3.org/Graphics/SVG/1.1/DTD/svg11.dtd"><svg xmlns="http://www.w3.org/2000/svg" xmlns:xlink="http://www.w3.org/1999/xlink" version="1.1" width="16" height="16" viewBox="0 0 16 16"><path fill="#444" d="M0 11h6v5H0v-5z"/><path fill="#444" d="M11 10V8l-.64.64a4.427 4.427 0 0 1-1.358-3.658L11.001 5V0h-6v5h2a4.43 4.43 0 0 1-1.358 3.639l-.642-.638v2h2l-.65-.65A5.426 5.426 0 0 0 8 4.982c-.01.149-.016.299-.016.45 0 1.539.639 2.928 1.665 3.917l-.648.652h2z"/><path fill="#444" d="M10 11h6v5h-6v-5z"/><metadata><rdf:RDF xmlns:rdf="http://www.w3.org/1999/02/22-rdf-syntax-ns#" xmlns:rdfs="http://www.w3.org/2000/01/rdf-schema#" xmlns:dc="http://purl.org/dc/elements/1.1/"><rdf:Description about="https://iconscout.com/legal#licenses" dc:title="split" dc:description="split" dc:publisher="Iconscout" dc:date="2017-09-19" dc:format="image/svg+xml" dc:language="en"><dc:creator><rdf:Bag><rdf:li>Vaadin Icons</rdf:li></rdf:Bag></dc:creator></rdf:Description></rdf:RDF></metadata></svg>