<svg xmlns="http://www.w3.org/2000/svg" width="80" height="80" viewBox="0 0 80 80"><path d="M 40 0 C 17.914524 0 -1.1e-005 17.91463 0 40 C 0 62.0855 17.914532 80 40 80 C 62.08547 80 80 62.0855 80 40 C 80.00001 17.91463 62.08548 0 40 0 z M 40 1 C 61.54504 1 79.00001 18.45503 79 40 C 79 61.5451 61.54503 79 40 79 C 18.454972 79 1 61.5451 1 40 C 0.999989 18.45503 18.454965 1 40 1 z M 33.5 16.998047 C 32.6775 16.998047 32 17.675547 32 18.498047 C 32 19.144887 32.420973 19.695817 33 19.904297 L 33 22.205078 L 38 27.205078 L 38 32 L 34 32 L 34 27.791016 L 32.207031 25.998047 L 29.90625 25.998047 C 29.697767 25.419027 29.146837 24.998047 28.5 24.998047 C 27.6775 24.998047 27 25.675547 27 26.498047 C 27 27.320547 27.6775 28 28.5 28 C 29.146373 28 29.697417 27.576437 29.90625 26.998047 L 31.792969 26.998047 L 33 28.207031 L 33 32 L 22.5 32 C 21.123649 32 20 33.1236 20 34.5 L 20 57 L 16.5 57 A 0.50005 0.50005 0 0 0 16 57.5 L 16 59.5 C 16 61.4303 17.569649 63 19.5 63 L 60.5 63 C 62.430351 63 64 61.4303 64 59.5 L 64 57.5 A 0.50005 0.50005 0 0 0 63.5 57 L 60 57 L 60 34.5 C 60 33.1236 58.876351 32 57.5 32 L 47 32 L 47 28.207031 L 48.207031 26.998047 L 50.09375 26.998047 C 50.302583 27.576437 50.853627 28 51.5 28 C 52.3225 28 53 27.320547 53 26.498047 C 53 25.675547 52.3225 24.998047 51.5 24.998047 C 50.853163 24.998047 50.302233 25.419027 50.09375 25.998047 L 47.792969 25.998047 L 46 27.791016 L 46 32 L 43 32 L 43 27.205078 L 48 22.205078 L 48 19.904297 C 48.579027 19.695817 49 19.144887 49 18.498047 C 49 17.675547 48.3225 16.998047 47.5 16.998047 C 46.6775 16.998047 46 17.675547 46 18.498047 C 46 19.144887 46.420973 19.695817 47 19.904297 L 47 21.791016 L 42 26.791016 L 42 32 L 39 32 L 39 26.791016 L 34 21.791016 L 34 19.904297 C 34.579027 19.695817 35 19.144887 35 18.498047 C 35 17.675547 34.3225 16.998047 33.5 16.998047 z M 33.5 17.998047 C 33.7821 17.998047 34 18.216047 34 18.498047 C 34 18.780147 33.7821 18.998047 33.5 18.998047 C 33.2179 18.998047 33 18.780147 33 18.498047 C 33 18.216047 33.2179 17.998047 33.5 17.998047 z M 47.5 17.998047 C 47.7821 17.998047 48 18.216047 48 18.498047 C 48 18.780147 47.7821 18.998047 47.5 18.998047 C 47.2179 18.998047 47 18.780147 47 18.498047 C 47 18.216047 47.2179 17.998047 47.5 17.998047 z M 28.5 25.998047 C 28.7821 25.998047 29 26.216047 29 26.498047 C 29 26.780147 28.7821 26.998047 28.5 26.998047 C 28.2179 26.998047 28 26.780147 28 26.498047 C 28 26.216047 28.2179 25.998047 28.5 25.998047 z M 51.5 25.998047 C 51.7821 25.998047 52 26.216047 52 26.498047 C 52 26.780147 51.7821 26.998047 51.5 26.998047 C 51.2179 26.998047 51 26.780147 51 26.498047 C 51 26.216047 51.2179 25.998047 51.5 25.998047 z M 22.5 33 L 57.5 33 C 58.339649 33 59 33.6603 59 34.5 L 59 57 L 21 57 L 21 34.5 C 21 33.6603 21.660351 33 22.5 33 z M 23.5 35 A 0.50005 0.50005 0 0 0 23 35.5 L 23 54.5 A 0.50005 0.50005 0 0 0 23.5 55 L 56.5 55 A 0.50005 0.50005 0 0 0 57 54.5 L 57 35.5 A 0.50005 0.50005 0 0 0 56.5 35 L 47 35 L 46 35 L 43 35 L 42 35 L 39 35 L 38 35 L 34 35 L 33 35 L 23.5 35 z M 24 36 L 33 36 L 33 37 L 30.529297 37 C 29.698532 37 29 37.6696 29 38.5 L 29 42 L 29 50.5 L 29 51.5 C 29 52.3223 29.677649 53 30.5 53 L 37.8125 53 L 47.353516 53 C 48.150652 53 48.861094 52.444697 48.960938 51.654297 L 49.988281 44.478516 A 0.50005 0.50005 0 0 0 49.990234 44.466797 C 50.089294 43.674897 49.405978 42.998047 48.609375 42.998047 L 48 42.998047 L 48 40.501953 L 50 40.501953 L 50 40.001953 C 49.999994 38.627153 48.874786 37.501953 47.5 37.501953 L 47 37.501953 L 47 36.001953 L 56 36.001953 L 56 54.001953 L 24 54.001953 L 24 36.001953 L 24 36 z M 34 36 L 38 36 L 38 38.015625 C 37.396826 38.472825 37 39.1881 37 40 L 37 40.5 L 36.5 40.5 C 36.214351 40.5 36 40.2856 36 40 L 36 38.5 C 36 37.6696 35.301468 37 34.470703 37 L 34 37 L 34 36 z M 39 36 L 42 36 L 42 37.5 L 39.5 37.5 C 39.328619 37.5 39.161864 37.519734 39 37.552734 L 39 36.001953 L 39 36 z M 43 36 L 46 36 L 46 37.5 L 45.5 37.5 L 43 37.5 L 43 36 z M 30.529297 37.996094 L 30.529297 38 L 34.470703 38 C 34.779739 38 35 38.2224 35 38.5 L 35 40 C 35 40.8223 35.677649 41.5 36.5 41.5 L 37 41.5 L 37 42.996094 C 36.215485 42.996194 35.430995 42.995994 34.646484 42.996094 C 33.850436 42.996094 33.138931 43.551397 33.039062 44.341797 L 32.015625 51.470703 C 31.969105 51.765303 31.781377 51.996094 31.5 51.996094 A 0.50005 0.50005 0 0 0 31.449219 51.996094 L 30.5 51.996094 C 30.214351 51.996094 30 51.781694 30 51.496094 L 30 50.496094 L 30 41.996094 L 30 38.496094 C 30 38.218494 30.220261 37.996094 30.529297 37.996094 z M 39.5 38.5 C 40.334349 38.5 40.999997 39.1656 41 40 L 41 40.5 L 47 40.5 L 47 42.996094 C 44.000072 42.996094 41.000041 42.995994 38 42.996094 L 38 40 C 38 39.1603 38.660351 38.5 39.5 38.5 z M 41.376953 38.5 L 45.5 38.5 L 47.5 38.5 C 48.138451 38.5 48.576696 38.9431 48.794922 39.5 L 47.591797 39.5 A 0.50005 0.50005 0 0 0 47.492188 39.490234 A 0.50005 0.50005 0 0 0 47.404297 39.5 L 41.792969 39.5 C 41.707759 39.1356 41.602887 38.7846 41.376953 38.5 z M 34.646484 43.996094 L 34.646484 44 C 39.300555 43.9991 43.955089 44.0003 48.609375 44 C 48.917772 44 49.024982 44.130403 48.998047 44.345703 L 48.474609 47.996094 L 47.802734 47.996094 L 47.802734 47 L 46.802734 47 L 46.802734 48 L 47.802734 48 L 47.802734 48.996094 L 48.332031 48.996094 L 47.970703 51.515625 A 0.50005 0.50005 0 0 0 47.96875 51.527344 C 47.94173 51.743344 47.660767 52 47.353516 52 L 37.8125 52 L 32.814453 52 C 32.869533 51.8705 32.982471 51.766659 33.003906 51.630859 A 0.50005 0.50005 0 0 0 33.005859 51.619141 L 34.03125 44.474609 A 0.50005 0.50005 0 0 0 34.03125 44.462891 C 34.05824 44.247191 34.337943 43.996094 34.646484 43.996094 z M 46.802734 48 L 45.802734 48 L 45.802734 49 L 46.802734 49 L 46.802734 48 z M 45.802734 48 L 45.802734 47 L 44.802734 47 L 44.802734 48 L 45.802734 48 z M 44.802734 48 L 43.802734 48 L 43.802734 49 L 44.802734 49 L 44.802734 48 z M 43.802734 48 L 43.802734 47 L 42.802734 47 L 42.802734 48 L 43.802734 48 z M 42.802734 48 L 41.802734 48 L 41.802734 49 L 42.802734 49 L 42.802734 48 z M 41.802734 48 L 41.802734 47 L 40.802734 47 L 40.802734 48 L 41.802734 48 z M 40.802734 48 L 39.802734 48 L 39.802734 49 L 40.802734 49 L 40.802734 48 z M 39.802734 48 L 39.802734 47 L 39.763672 47 L 39.75 47 L 39.316406 46.966797 L 38.931641 46.875 L 38.701172 47.845703 L 39.119141 47.947266 L 39.158203 47.958984 L 39.197266 47.958984 L 39.710938 48 L 39.730469 48 L 39.75 48 L 39.802734 48 z M 37.556641 45.916016 L 36.816406 46.587891 L 37.125 46.929688 L 37.150391 46.958984 L 37.179688 46.982422 L 37.554688 47.291016 L 37.580078 47.314453 L 37.613281 47.333984 L 37.658203 47.361328 L 38.095703 46.630859 L 38.189453 46.519531 L 38.169922 46.505859 L 38.158203 46.494141 L 37.839844 46.232422 L 37.556641 45.916016 z M 38.697266 48.162109 L 38.630859 48.171875 L 38.59375 48.181641 L 38.558594 48.199219 L 38.101562 48.384766 L 38.066406 48.400391 L 38.033203 48.419922 L 37.660156 48.642578 L 38.173828 49.5 L 38.513672 49.296875 L 38.902344 49.138672 L 38.931641 49.126953 L 38.919922 49.097656 L 38.697266 48.162109 z M 37 49 L 36 50.732422 L 36.865234 51.232422 L 37.119141 50.791016 L 38.261719 51.375 A 0.50051399 0.50051399 0 1 0 38.714844 50.482422 L 37.621094 49.923828 L 37.865234 49.5 L 37 49 z M 17 58 L 34.050781 58 C 34.284672 59.1371 35.295693 60 36.5 60 L 44.5 60 C 45.704307 60 46.715328 59.1371 46.949219 58 L 63 58 L 63 59.5 C 63 60.8936 61.893649 62 60.5 62 L 19.5 62 C 18.106351 62 17 60.8936 17 59.5 L 17 58 z M 35.205078 58 L 45.794922 58 C 45.577847 58.5576 45.142379 59 44.5 59 L 36.5 59 C 35.857621 59 35.422153 58.5576 35.205078 58 z " color="#000" font-family="sans-serif" font-weight="400" overflow="visible" white-space="normal" style="line-height:normal;text-indent:0;text-align:start;text-decoration-line:none;text-decoration-style:solid;text-decoration-color:#000;text-transform:none;block-progression:tb;isolation:auto;mix-blend-mode:normal"/></svg>