<?xml version="1.0" encoding="utf-8"?>
<!-- Svg Vector Icons : http://www.onlinewebfonts.com/icon -->
<!DOCTYPE svg PUBLIC "-//W3C//DTD SVG 1.1//EN" "http://www.w3.org/Graphics/SVG/1.1/DTD/svg11.dtd">
<svg version="1.1" xmlns="http://www.w3.org/2000/svg" xmlns:xlink="http://www.w3.org/1999/xlink" x="0px" y="0px" viewBox="0 0 1000 1000" enable-background="new 0 0 1000 1000" xml:space="preserve">
<metadata> Svg Vector Icons : http://www.onlinewebfonts.com/icon </metadata>
<g><g transform="translate(0.000000,511.000000) scale(0.100000,-0.100000)"><path d="M607.6,5010.5c-190.3-46.5-363.8-190.4-454.7-372.2L100,4532.6V968.9v-3563.7l52.9-105.7c65.6-135.4,192.5-262.3,327.8-327.8l105.7-52.9l1975.4-6.3l1973.3-4.2l-12.7,48.6c-27.5,110-55,349-55,486.4v141.7H2616.8H766.2V292.1v2707.1h3553.1h3553.1V1806.4V613.6l154.4-25.4c82.5-14.8,228.4-48.6,321.5-76.1c93.1-27.5,175.5-50.8,186.1-50.8c8.5,0,12.7,915.8,10.6,2036.7l-6.3,2034.6l-52.9,105.7c-65.6,135.4-192.5,262.3-327.8,327.8l-105.7,52.9l-3690.6,4.2C2331.3,5023.2,643.5,5019,607.6,5010.5z M1443,4014.4V3676h-338.4H766.2v338.4v338.4h338.4H1443V4014.4z M2796.6,4014.4V3676h-338.4h-338.4v338.4v338.4h338.4h338.4V4014.4z M4150.1,4014.4V3676h-338.4h-338.4v338.4v338.4h338.4h338.4V4014.4z"/><path d="M1443,1307.3V292.1h2334.9h2334.9l137.5,61.3c215.7,97.3,450.5,169.2,708.5,220l236.9,46.5v850.2v852.3H4319.3H1443V1307.3z"/><path d="M7280.3-56.9c-16.9-4.2-103.7-19-190.4-31.7c-846-137.5-1577.8-788.9-1848.5-1645.4c-118.4-378.6-129-907.3-23.3-1304.9c239-898.8,979.2-1575.6,1903.5-1736.4c279.2-50.8,738.1-29.6,998.3,42.3c533,148,966.5,435.7,1279.5,848.1c313,410.3,469.5,835.4,497,1343c38.1,697.9-232.6,1353.6-763.5,1854.8c-425.1,403.9-939,613.3-1535.4,630.3C7441-52.7,7297.2-52.7,7280.3-56.9z M8644.4-1844l232.6-232.6l-841.7-841.8l-839.6-839.6l-501.3,503.4l-503.3,501.2l236.9,236.9l239,239l264.4-264.4l264.4-264.4l598.5,598.5c327.8,327.8,600.7,596.4,607,596.4S8517.5-1717.1,8644.4-1844z"/><path d="M1443-1061.5v-676.8h676.8h676.8v676.8v676.8h-676.8H1443V-1061.5z"/><path d="M3473.3-1061.5v-676.8h539.3c484.3,0,539.3,4.2,539.3,33.8c0,59.2,141.7,463.2,209.4,598.5c63.4,124.8,65.6,135.4,65.6,425.1v296.1h-676.8h-676.8V-1061.5z"/></g></g>
</svg>